<svg width="15" height="20" viewBox="0 0 15 20" fill="none" xmlns="http://www.w3.org/2000/svg">
<path d="M7.40737 0C3.32291 0 0 3.33899 0 7.44318C0 9.73889 1.17627 12.5253 3.49624 15.7251C5.19401 18.0668 6.867 19.7369 6.9374 19.8069C7.0668 19.9355 7.23705 20 7.40749 20C7.57298 20 7.73859 19.9391 7.86697 19.8171C7.93753 19.75 9.61475 18.1475 11.3157 15.8382C13.6376 12.6858 14.8148 9.86131 14.8148 7.44314C14.8147 3.33899 11.4917 0 7.40737 0ZM7.40737 10.6565C5.41051 10.6565 3.786 9.05291 3.786 7.08185C3.786 5.11079 5.41055 3.50719 7.40737 3.50719C9.40418 3.50719 11.0287 5.11079 11.0287 7.08185C11.0287 9.05291 9.40415 10.6565 7.40737 10.6565Z" fill="#35C2C1" fill-opacity="0.5"/>
</svg>
