<svg width="17" height="18" viewBox="0 0 17 18" fill="none" xmlns="http://www.w3.org/2000/svg">
<path d="M16.6539 16.0239L11.328 10.698C12.1545 9.62959 12.6016 8.32324 12.6016 6.94922C12.6016 5.30449 11.9597 3.7623 10.7989 2.59951C9.63818 1.43672 8.09189 0.796875 6.44922 0.796875C4.80654 0.796875 3.26025 1.43877 2.09951 2.59951C0.936719 3.76025 0.296875 5.30449 0.296875 6.94922C0.296875 8.59189 0.938769 10.1382 2.09951 11.2989C3.26025 12.4617 4.80449 13.1016 6.44922 13.1016C7.82324 13.1016 9.12754 12.6545 10.196 11.8301L15.5219 17.1539C15.5375 17.1695 15.556 17.1819 15.5764 17.1904C15.5969 17.1988 15.6187 17.2032 15.6408 17.2032C15.6629 17.2032 15.6848 17.1988 15.7052 17.1904C15.7256 17.1819 15.7441 17.1695 15.7598 17.1539L16.6539 16.2618C16.6695 16.2462 16.6819 16.2277 16.6904 16.2072C16.6988 16.1868 16.7032 16.165 16.7032 16.1429C16.7032 16.1208 16.6988 16.0989 16.6904 16.0785C16.6819 16.0581 16.6695 16.0395 16.6539 16.0239ZM9.69766 10.1977C8.82812 11.0651 7.67559 11.543 6.44922 11.543C5.22285 11.543 4.07031 11.0651 3.20078 10.1977C2.3333 9.32812 1.85547 8.17559 1.85547 6.94922C1.85547 5.72285 2.3333 4.56826 3.20078 3.70078C4.07031 2.8333 5.22285 2.35547 6.44922 2.35547C7.67559 2.35547 8.83018 2.83125 9.69766 3.70078C10.5651 4.57031 11.043 5.72285 11.043 6.94922C11.043 8.17559 10.5651 9.33018 9.69766 10.1977Z" fill="#35C2C1"/>
</svg>
